<svg width="40" height="40" viewBox="0 0 40 40" fill="none" xmlns="http://www.w3.org/2000/svg">
  <!-- Background circle -->
  <circle cx="20" cy="20" r="20" fill="#2196F3"/>
  
  <!-- Book icon -->
  <path d="M12 10C12 9.44772 12.4477 9 13 9H19C19.5523 9 20 9.44772 20 10V30C20 30.5523 19.5523 31 19 31H13C12.4477 31 12 30.5523 12 30V10Z" fill="white"/>
  <path d="M21 10C21 9.44772 21.4477 9 22 9H27C27.5523 9 28 9.44772 28 10V30C28 30.5523 27.5523 31 27 31H22C21.4477 31 21 30.5523 21 30V10Z" fill="white"/>
  
  <!-- Pencil accent -->
  <circle cx="20" cy="20" r="3" fill="#FFC107"/>
  
  <!-- Letter L -->
  <text x="20" y="24" font-family="Arial, sans-serif" font-size="10" font-weight="bold" fill="#2196F3" text-anchor="middle">L</text>
</svg>
